<?xml version="1.0" encoding="UTF-8"?>
<svg id="Ebene_1" data-name="Ebene 1" xmlns="http://www.w3.org/2000/svg" version="1.1" viewBox="0 0 512 512">
  <defs>
    <style>
      .cls-1 {
        isolation: isolate;
        opacity: 0;
      }

      .cls-1, .cls-2 {
        fill: #62bfb9;
      }

      .cls-1, .cls-2, .cls-3 {
        stroke-width: 0px;
      }

      .cls-3 {
        fill: #202c53;
      }
    </style>
  </defs>
  <path class="cls-3" d="M175.4,125.8h162.1c78.6,0,142.8,64.2,142.8,142.8v40.9c0,78.6-64.2,142.8-142.8,142.8h-25.5v50.9s-54.4-14.9-136.6-42.1c-96.2-31.8-142.9-73.1-142.9-151.6v-40.9c0-78.6,64.3-142.8,142.9-142.8h0Z"/>
  <path class="cls-3" d="M337.5,125.8h-25.5c78.6,0,142.9,64.2,142.9,142.8v40.9c0,78.6-64.3,142.8-142.9,142.8h25.5c78.6,0,142.9-64.3,142.9-142.8v-40.9c0-78.6-64.3-142.8-142.9-142.8Z"/>
  <path class="cls-2" d="M337.6,376.7c48.3,0,87.6-39.3,87.6-87.6h0c0-48.3-39.3-87.6-87.6-87.6h-162.1c-48.3,0-87.6,39.3-87.6,87.6h0c0,48.3,39.3,87.6,87.6,87.6h162.1Z"/>
  <path class="cls-3" d="M55.5,223.9c-28.7,3.9-49.7,18.2-49.7,61.2s19,55.7,45.7,60.5l4-121.7Z"/>
  <g>
    <path class="cls-3" d="M265.5,61.7v52.9h-18v-52.8c-10.5-3.7,28.5-3.7,18,0h0Z"/>
    <path class="cls-3" d="M192.3,146.1c0-21.8,32.9-39.5,64.2-39.5s64.2,17.7,64.2,39.5-32.9,39.5-64.2,39.5-64.2-17.7-64.2-39.5Z"/>
    <path class="cls-3" d="M229.5,36.3c0-14.9,12.1-26.9,26.9-26.9s26.9,12.1,26.9,26.9-12.1,26.9-26.9,26.9-26.9-12.1-26.9-26.9Z"/>
  </g>
  <path class="cls-3" d="M471,343.5c21.6-6.5,36.2-22.5,36.2-58.3s-18.8-55.6-45.3-60.5l9.1,118.8h0Z"/>
  <path class="cls-1" d="M175.4,376.7c-48.3,0-87.6-39.3-87.6-87.6h0c0-48.3,39.3-87.6,87.6-87.6h162.1l-162.1,175.3h0Z"/>
  <g>
    <path class="cls-3" d="M201.4,289c0-13-10.5-23.4-23.5-23.4s-23.5,10.5-23.5,23.4,10.5,23.4,23.5,23.4,23.5-10.5,23.5-23.4Z"/>
    <path class="cls-3" d="M358.5,289c0-13-10.5-23.4-23.4-23.4s-23.5,10.5-23.5,23.4,10.5,23.4,23.5,23.4,23.4-10.5,23.4-23.4Z"/>
  </g>
</svg>